# xmcd
#
# Track frame offsets: 
#        150
#        26717
#        36367
#        67753
#        86702
#
# Disc length: 2046 seconds
#
# Revision: 1
# Processed by: cddbd v1.5.2PL0 Copyright (c) Steve Scherf et al.
# Submitted via: ExactAudioCopyFreeDBPlugin 1.0
#
DISCID=3907fc05
DTITLE=Crippled Black Phoenix - (MANKIND) THE CRAFTY APE [CD2)
DYEAR=2012
DGENRE=Alt. Rock
TTITLE0=A SUGGESTION (NOT A VERY NICE ONE)
TTITLE1=(DIG, BURY, DENY)
TTITLE2=OPERATION MINCEMEAT
TTITLE3=WE'LL NEVER GET OUT OF THIS WORLD ALIVE
TTITLE4=FACED WITH COMPLETE FAILURE, UTTER DEFIANCE IS THE ONLY RESPON
TTITLE4=SE
EXTD=
EXTT0=
EXTT1=
EXTT2=
EXTT3=
EXTT4=
PLAYORDER=
